# xmcd
#
# Track frame offsets: 
#        150
#        22158
#        40375
#        56826
#        66531
#        83979
#        95920
#        111509
#
# Disc length: 1736 seconds
#
# Revision: 0
# Processed by: cddbd v1.5.2PL0 Copyright (c) Steve Scherf et al.
# Submitted via: ExactAudioCopyFreeDBPlugin 1.0
#
DISCID=7d06c608
DTITLE=Renato Muller - Gaita Ponto e Virgo lá
DYEAR=2020
DGENRE=Folk
TTITLE0=Dolores - Kesh
TTITLE1=A oeste do fim do mundo
TTITLE2=Cinco conto
TTITLE3=Amorosa
TTITLE4=Polka Giocoliera
TTITLE5=Il Mare D'Aral 
TTITLE6=Cecília
TTITLE7=Música das núvens e do chão
EXTD=
EXTT0=
EXTT1=
EXTT2=
EXTT3=
EXTT4=
EXTT5=
EXTT6=
EXTT7=
PLAYORDER=
